<svg xmlns="http://www.w3.org/2000/svg" width="300" height="423" viewBox="0 0 300 423"><path d="M 47,422 Z" fill="black"/>
<path d="M 203,421 Z" fill="black"/>
<path d="M 69,421 Z" fill="black"/>
<path d="M 45,421 Z" fill="black"/>
<path d="M 229,420 L 228,421 L 229,422 L 228,421 Z" fill="black"/>
<path d="M 201,420 Z" fill="black"/>
<path d="M 87,420 Z" fill="black"/>
<path d="M 127,418 Z" fill="black"/>
<path d="M 5,418 Z" fill="black"/>
<path d="M 82,412 Z" fill="black"/>
<path d="M 230,396 Z" fill="black"/>
<path d="M 65,394 Z" fill="black"/>
<path d="M 227,393 Z" fill="black"/>
<path d="M 107,393 Z" fill="black"/>
<path d="M 104,393 Z" fill="black"/>
<path d="M 76,393 Z" fill="black"/>
<path d="M 68,393 Z" fill="black"/>
<path d="M 207,392 L 206,393 Z" fill="black"/>
<path d="M 71,392 L 70,393 Z" fill="black"/>
<path d="M 182,386 Z" fill="black"/>
<path d="M 28,374 Z" fill="black"/>
<path d="M 175,370 Z" fill="black"/>
<path d="M 20,370 Z" fill="black"/>
<path d="M 142,369 Z" fill="black"/>
<path d="M 128,367 Z" fill="black"/>
<path d="M 2,367 Z" fill="black"/>
<path d="M 6,366 L 4,368 L 4,413 L 6,415 L 6,416 L 7,416 L 8,417 L 9,417 L 10,418 L 11,418 L 12,417 L 14,417 L 17,414 L 17,413 L 18,412 L 18,409 L 19,408 L 18,407 L 18,406 L 20,404 L 21,405 L 21,406 L 22,406 L 23,407 L 28,407 L 29,406 L 30,407 L 30,412 L 31,413 L 31,414 L 35,418 L 37,418 L 38,417 L 40,417 L 41,416 L 42,416 L 43,415 L 45,417 L 48,417 L 49,418 L 53,418 L 54,417 L 61,417 L 62,418 L 64,418 L 65,417 L 69,417 L 70,418 L 72,418 L 73,417 L 78,417 L 79,416 L 79,415 L 80,414 L 80,411 L 79,410 L 80,409 L 83,409 L 84,410 L 84,416 L 85,417 L 86,417 L 87,418 L 96,418 L 98,416 L 98,410 L 99,409 L 103,409 L 104,410 L 104,411 L 106,413 L 106,415 L 107,414 L 110,417 L 113,417 L 114,418 L 118,418 L 119,417 L 121,417 L 122,416 L 123,416 L 124,415 L 125,415 L 126,416 L 125,415 L 125,414 L 128,411 L 128,409 L 129,408 L 130,409 L 130,414 L 129,415 L 130,414 L 133,417 L 136,417 L 137,418 L 138,417 L 140,417 L 141,416 L 142,416 L 143,417 L 142,416 L 142,415 L 143,414 L 143,412 L 144,411 L 145,412 L 146,411 L 148,413 L 148,414 L 151,417 L 154,417 L 155,418 L 169,418 L 170,417 L 172,417 L 173,418 L 180,418 L 181,417 L 183,417 L 184,418 L 191,418 L 192,417 L 195,417 L 196,418 L 198,418 L 199,417 L 200,418 L 204,418 L 206,420 L 207,420 L 208,421 L 210,421 L 211,422 L 221,422 L 222,421 L 224,421 L 225,420 L 226,420 L 228,418 L 228,417 L 229,416 L 229,415 L 230,414 L 230,400 L 229,399 L 229,398 L 227,396 L 228,395 L 227,396 L 225,394 L 224,395 L 223,394 L 222,395 L 216,395 L 215,394 L 213,394 L 212,395 L 209,395 L 208,396 L 207,395 L 207,396 L 205,398 L 204,397 L 203,397 L 202,396 L 202,395 L 192,395 L 191,396 L 190,395 L 186,395 L 185,394 L 184,395 L 183,394 L 183,392 L 182,391 L 182,390 L 181,389 L 180,389 L 179,388 L 180,387 L 179,388 L 178,388 L 177,387 L 176,388 L 174,388 L 173,389 L 172,389 L 171,388 L 172,387 L 172,386 L 173,385 L 172,384 L 172,383 L 176,379 L 176,376 L 177,375 L 176,374 L 175,374 L 174,373 L 154,373 L 153,374 L 151,374 L 150,375 L 150,376 L 148,378 L 147,377 L 146,378 L 147,379 L 146,380 L 146,381 L 145,382 L 144,381 L 144,376 L 143,375 L 143,374 L 142,374 L 141,373 L 142,372 L 142,371 L 141,372 L 137,368 L 137,367 L 136,367 L 135,366 L 132,366 L 130,368 L 130,401 L 129,402 L 128,401 L 128,400 L 127,399 L 127,398 L 126,397 L 126,396 L 125,396 L 124,395 L 125,394 L 124,395 L 123,395 L 122,394 L 121,394 L 120,393 L 112,393 L 111,394 L 109,394 L 108,395 L 107,395 L 107,396 L 106,397 L 105,397 L 103,395 L 99,395 L 98,394 L 97,395 L 96,395 L 94,393 L 95,394 L 94,395 L 93,395 L 92,394 L 91,394 L 90,395 L 88,395 L 87,396 L 85,396 L 84,395 L 81,395 L 80,394 L 79,395 L 78,394 L 77,395 L 69,395 L 68,396 L 67,396 L 66,397 L 65,397 L 63,395 L 57,395 L 56,394 L 55,395 L 47,395 L 46,396 L 45,396 L 44,395 L 44,368 L 42,366 L 39,366 L 35,370 L 34,369 L 33,370 L 34,371 L 34,372 L 32,374 L 31,374 L 30,375 L 31,376 L 29,378 L 28,377 L 29,378 L 28,379 L 27,379 L 26,380 L 24,378 L 23,378 L 20,375 L 22,373 L 21,374 L 20,373 L 19,374 L 18,373 L 17,373 L 11,367 L 12,366 L 11,367 L 10,367 L 9,366 Z" fill="black"/>
<path d="M 0,366 Z" fill="black"/>
<path d="M 135,364 Z" fill="black"/>
<path d="M 10,364 Z" fill="black"/>
<path d="M 132,290 Z" fill="black"/>
<path d="M 8,237 L 8,279 L 7,280 L 7,303 L 14,310 L 15,310 L 20,315 L 21,315 L 28,322 L 29,322 L 36,329 L 37,329 L 42,334 L 43,334 L 45,336 L 45,337 L 46,337 L 50,341 L 51,341 L 56,346 L 57,346 L 62,351 L 63,351 L 69,357 L 70,357 L 72,355 L 73,355 L 77,351 L 78,351 L 80,349 L 81,349 L 85,345 L 86,345 L 88,343 L 89,343 L 89,342 L 90,341 L 91,341 L 94,338 L 95,338 L 98,335 L 99,335 L 101,333 L 102,333 L 102,332 L 103,331 L 103,328 L 104,327 L 106,329 L 106,330 L 109,333 L 109,334 L 113,338 L 113,339 L 117,343 L 117,344 L 121,348 L 121,349 L 124,352 L 124,353 L 127,356 L 127,357 L 131,361 L 132,360 L 196,360 L 197,359 L 197,358 L 194,355 L 194,354 L 191,351 L 191,350 L 187,346 L 187,345 L 185,343 L 185,342 L 184,342 L 183,341 L 183,340 L 181,338 L 181,337 L 180,337 L 179,336 L 179,334 L 178,334 L 177,333 L 177,332 L 174,329 L 174,327 L 175,326 L 175,325 L 179,321 L 179,320 L 183,316 L 183,315 L 187,311 L 187,310 L 193,304 L 193,303 L 195,301 L 195,300 L 201,294 L 201,293 L 205,289 L 205,288 L 209,284 L 209,283 L 214,278 L 214,277 L 218,273 L 218,272 L 222,268 L 222,267 L 223,266 L 223,264 L 159,264 L 158,265 L 157,265 L 153,269 L 153,270 L 146,277 L 146,278 L 141,283 L 141,284 L 135,290 L 135,291 L 129,297 L 129,298 L 123,304 L 123,305 L 118,310 L 118,311 L 111,318 L 111,319 L 106,324 L 106,325 L 104,327 L 103,326 L 103,265 L 101,265 L 98,268 L 97,268 L 93,272 L 92,272 L 90,274 L 89,274 L 86,277 L 85,277 L 81,281 L 80,281 L 77,284 L 76,284 L 72,288 L 70,288 L 65,283 L 64,283 L 61,280 L 60,280 L 59,279 L 59,278 L 58,278 L 56,276 L 55,276 L 54,275 L 54,274 L 53,274 L 49,270 L 48,270 L 43,265 L 42,265 L 36,259 L 35,259 L 31,255 L 30,255 L 25,250 L 24,250 L 19,245 L 18,245 L 14,241 L 13,241 L 9,237 Z" fill="black"/>
</svg>
